<svg width="326" height="326" viewBox="0 0 326 326" fill="none" xmlns="http://www.w3.org/2000/svg">
<circle cx="163" cy="163" r="156" fill="url(#paint0_linear_9_64)" stroke="black" stroke-width="14"/>
<path d="M139.086 176.944C147.754 174.807 156.539 173.812 165.456 173.469C165.456 175.567 164.745 178.591 164.298 180.636C163.468 184.427 162.161 188.189 161.04 191.911C159.928 195.601 158.387 199.232 157.384 202.933C157.17 203.722 155.329 208.516 155.936 209.123C156.477 209.664 157.738 209.762 158.434 210.028C159.806 210.551 161.123 211.214 162.452 211.838C166.844 213.899 171.261 215.912 175.645 217.991C183.325 221.632 191.234 224.694 198.974 228.199C206.922 231.798 214.533 236.144 222.358 239.999C226.048 241.817 229.48 243.824 232.891 246.098C233.416 246.448 234.323 246.48 234.773 246.84C235.583 247.488 235.034 244.939 235.009 244.632C234.502 238.354 235.133 231.879 235.751 225.629C236.276 220.309 236.505 214.967 237.054 209.648C237.986 200.614 239.318 191.629 240.203 182.59C241.758 166.714 242.362 150.819 242.809 134.882C243.022 127.299 243.296 119.704 244.04 112.151C244.488 107.598 244.989 102.83 246.393 98.4501C246.539 97.9952 247.971 95.8651 246.791 96.0067C243.598 96.3898 240.267 97.5914 237.278 98.6698L237.235 98.6853C224.794 103.173 212.633 108.399 200.278 113.11C191.293 116.535 181.896 118.81 173.057 122.612C167.713 124.91 162.697 127.896 157.348 130.177C152.663 132.174 147.675 133.192 142.869 134.828C137.82 136.547 133.04 138.922 128.046 140.783C113.43 146.228 97.6141 147.182 82.3835 149.941C73.0661 151.628 63.8922 154.292 55.2356 158.175C53.7745 158.831 49.786 160.147 49.0097 161.777C48.7723 162.275 52.9749 163.482 53.1724 163.551C58.1038 165.254 62.9104 167.21 67.796 169.035C72.3318 170.729 76.2649 172.596 80.1754 175.478C85.7507 179.586 91.6878 182.388 98.0568 185.052C102.145 186.762 102.657 186.871 106.672 185.92C107.98 185.611 109.387 185.661 110.726 185.359C113.604 184.712 116.396 183.739 119.268 183.025C121.817 182.391 124.245 181.371 126.707 180.473C130.733 179.004 134.932 177.968 139.086 176.944Z" fill="#242424" stroke="#242424" stroke-width="22" stroke-linecap="round"/>
<defs>
<linearGradient id="paint0_linear_9_64" x1="107.975" y1="37.8949" x2="206.086" y2="300.045" gradientUnits="userSpaceOnUse">
<stop stop-color="#FE55A7"/>
<stop offset="1" stop-color="#FFF502"/>
</linearGradient>
</defs>
</svg>
