<svg width="326" height="326" viewBox="0 0 326 326" fill="none" xmlns="http://www.w3.org/2000/svg">
<circle cx="163" cy="163" r="156" fill="url(#paint0_linear_9_63)" stroke="black" stroke-width="14"/>
<path d="M72.7145 238.88C71.87 239.814 70.8941 241.37 69.7166 242.149C72.5195 242.412 76.3211 244.079 78.8324 245.26C88.1105 249.626 96.9221 255.807 107.565 256.251C113.653 256.505 116.65 252.683 120.478 248.429C125.024 243.378 128.802 237.685 133.129 232.456C135.962 229.033 139.503 225.829 141.76 221.968C145.097 216.26 147.945 210.25 151.243 204.51C160.256 188.828 173.945 177.346 185.329 163.629C191.383 156.335 198.401 149.59 205.23 143.027L205.278 142.981C213.584 134.998 221.148 126.453 228.723 117.788C232.538 113.424 236.636 109.179 241.264 105.661C243.959 103.613 248.683 100.975 249.436 97.293C250.679 91.2189 245.661 84.3334 241.658 80.4686C238.33 77.256 234.36 76.4004 230.274 74.722C225.733 72.857 222.292 70.6485 217.317 70.068C211.616 69.4029 207.313 73.7478 203.268 77.344C193.268 86.2328 182.673 95.2584 174.142 105.596C170.721 109.74 167.743 114.223 164.418 118.444C156.022 129.104 147.303 139.516 138.526 149.864C133.521 155.765 128.561 161.245 124.28 167.65C120.275 173.642 115.772 178.91 111.192 184.452C107.442 188.99 104.55 194.055 101.294 198.939C98.257 203.494 94.8105 207.752 91.5928 212.18C88.3282 216.672 85.7803 221.555 82.7654 226.207C79.8072 230.772 76.3542 234.857 72.7145 238.88Z" fill="#242424"/>
<path d="M69 242.507C70.5062 242.005 71.7044 239.997 72.7145 238.88C76.3542 234.857 79.8072 230.772 82.7654 226.207C85.7803 221.555 88.3282 216.672 91.5928 212.18C94.8105 207.752 98.257 203.494 101.294 198.939C104.55 194.055 107.442 188.99 111.192 184.452C115.772 178.91 120.275 173.642 124.28 167.65C128.561 161.245 133.521 155.765 138.526 149.864C147.303 139.516 156.022 129.104 164.418 118.444C167.743 114.223 170.721 109.74 174.142 105.596C182.673 95.2584 193.268 86.2328 203.268 77.344C207.313 73.7478 211.616 69.4029 217.317 70.068C222.292 70.6485 225.733 72.857 230.274 74.722C234.36 76.4004 238.33 77.256 241.658 80.4686C245.661 84.3334 250.679 91.2189 249.436 97.293C248.683 100.975 243.959 103.613 241.264 105.661C236.636 109.179 232.538 113.424 228.723 117.788C221.148 126.453 213.584 134.998 205.278 142.981C198.433 149.559 191.397 156.318 185.329 163.629C173.945 177.346 160.256 188.828 151.243 204.51C147.945 210.25 145.097 216.26 141.76 221.968C139.503 225.829 135.962 229.033 133.129 232.456C128.802 237.685 125.024 243.378 120.478 248.429C116.65 252.683 113.653 256.505 107.565 256.251C96.9221 255.807 88.1105 249.627 78.8324 245.26C76.0996 243.974 71.839 242.114 69 242.114" stroke="black" stroke-width="3" stroke-linecap="round"/>
<path d="M128.173 80.0068C124.315 83.6652 91.0439 92.6364 86.2564 93.9678C82.8436 94.9169 74.9278 97.6588 76.1214 102.97C77.148 107.538 80.4074 109.785 83.1918 112.964C84.668 114.649 85.0174 116.815 86.1116 118.736C88.54 123.002 92.117 127.088 95.2572 130.765C100.835 137.296 107.468 142.589 112.149 149.913C117.348 158.049 123.779 165.683 130.802 172.088C132.593 173.721 133.769 175.541 135.314 177.403C137.797 180.394 140.572 183.068 143.109 185.998C147.58 191.163 151.682 196.646 156.188 201.79C158.767 204.735 161.297 207.754 163.692 210.869C166.392 214.38 168.257 218.464 170.835 222.058C174.41 227.043 178.46 231.881 181.79 237.011C187.559 245.895 193.138 253.663 201.916 259.592C204.825 261.558 209.216 261.227 212.388 260.05C216.411 258.558 220.123 256.203 223.923 254.201C227.353 252.394 230.99 251.21 233.817 248.352C235.916 246.229 237.357 244.255 240.018 242.936C242.47 241.72 244.502 240.042 246.413 238.028C248.577 235.747 250.68 232.283 249.791 228.924C248.326 223.384 244.605 219.923 241.756 215.243C237.282 207.894 232.951 200.569 228.025 193.5C222.535 185.622 217.172 177.515 212.195 169.266C207.824 162.019 202.22 155.504 196.896 149.023C191.195 142.083 185.399 135.188 178.967 128.985C173.974 124.169 168.922 119.773 163.741 115.202C158.281 110.385 152.484 104.323 148.804 97.8586C146.769 94.2845 144.253 90.2068 141.564 87.1272C137.115 82.0306 133.593 79.8613 126.965 80.0068C123.039 80.093 118.232 80.5668 114.49 81.8124C104.98 84.977 94.6387 86.7169 86.4736 93.0269C83.4737 95.3452 80.2598 97.2738 77.3039 99.5878C75.7521 100.803 77.7795 100.002 76.1217 100.875" stroke="#242424" stroke-width="22" stroke-linecap="round"/>
<defs>
<linearGradient id="paint0_linear_9_63" x1="107.975" y1="37.8949" x2="206.086" y2="300.045" gradientUnits="userSpaceOnUse">
<stop stop-color="#FE55A7"/>
<stop offset="1" stop-color="#FFF502"/>
</linearGradient>
</defs>
</svg>
